<svg width="160" height="58" viewBox="0 0 160 58" fill="none" xmlns="http://www.w3.org/2000/svg">
<path d="M51.186 28.9797V23.7275H75.9314V28.9797H66.707V53.8574H60.4104V28.9797H51.186Z" fill="#1B202A"/>
<path d="M85.9796 23.7275L92.0556 33.9964H92.2909L98.3964 23.7275H105.59L96.3955 38.7925L105.796 53.8574H98.4699L92.2909 43.5738H92.0556L85.8766 53.8574H78.5795L88.0098 38.7925L78.756 23.7275H85.9796Z" fill="#1B202A"/>
<path d="M110.157 53.8572V49.2671L120.882 39.3366C121.794 38.4539 122.559 37.6595 123.177 36.9533C123.804 36.2471 124.28 35.5557 124.604 34.8789C124.927 34.1924 125.089 33.4519 125.089 32.6575C125.089 31.7747 124.888 31.0146 124.486 30.3771C124.084 29.7298 123.535 29.2345 122.838 28.8912C122.142 28.5381 121.353 28.3616 120.47 28.3616C119.548 28.3616 118.744 28.5479 118.057 28.9206C117.37 29.2933 116.841 29.8279 116.468 30.5242C116.095 31.2206 115.909 32.0494 115.909 33.0105H109.863C109.863 31.0392 110.309 29.3277 111.201 27.8761C112.094 26.4245 113.344 25.3015 114.953 24.5071C116.561 23.7126 118.415 23.3154 120.514 23.3154C122.672 23.3154 124.55 23.6979 126.149 24.463C127.757 25.2182 129.008 26.2676 129.9 27.6113C130.793 28.955 131.239 30.4948 131.239 32.2308C131.239 33.3685 131.013 34.4915 130.562 35.5998C130.121 36.7081 129.331 37.939 128.194 39.2925C127.056 40.6362 125.452 42.2496 123.383 44.1327L118.984 48.4433V48.6492H131.636V53.8572H110.157Z" fill="#1B202A"/>
<path d="M135.149 48.561V43.5442L147.727 23.7274H152.052V30.6714H149.493L141.563 43.2206V43.456H159.438V48.561H135.149ZM149.61 53.8572V47.0309L149.728 44.8094V23.7274H155.701V53.8572H149.61Z" fill="#1B202A"/>
<path d="M4.14282 24.8572C4.14282 22.5692 5.99764 20.7144 8.28568 20.7144C10.5737 20.7144 12.4285 22.5692 12.4285 24.8572V41.4286C12.4285 43.7167 10.5737 45.5715 8.28568 45.5715C5.99764 45.5715 4.14282 43.7167 4.14282 41.4286V24.8572Z" fill="#5EDB94"/>
<path d="M16.5715 33.1429C16.5715 30.8548 18.4264 29 20.7144 29C23.0024 29 24.8572 30.8548 24.8572 33.1429V49.7143C24.8572 52.0023 23.0024 53.8571 20.7144 53.8571C18.4264 53.8571 16.5715 52.0023 16.5715 49.7143V33.1429Z" fill="#5EDB94"/>
<path d="M29 4.14286C29 1.85482 30.8548 0 33.1429 0C35.4309 0 37.2857 1.85482 37.2857 4.14286V37.2857C37.2857 39.5737 35.4309 41.4286 33.1429 41.4286C30.8548 41.4286 29 39.5737 29 37.2857V4.14286Z" fill="#5EDB94"/>
</svg>
